<svg xmlns="http://www.w3.org/2000/svg" width="1200" height="680" viewBox="0 0 1200 680" role="img" aria-labelledby="title desc">
  <title id="title">LabSignal architecture</title>
  <desc id="desc">Slack slash commands and mentions flow through a Socket Mode app into the LabSignal agent, local tools, MCP server, and back to Slack.</desc>
  <defs>
    <style>
      .bg { fill: #f7f8fa; }
      .panel { fill: #ffffff; stroke: #d8dee8; stroke-width: 2; rx: 10; }
      .slack { fill: #4a154b; }
      .agent { fill: #1264a3; }
      .tool { fill: #2e7d32; }
      .mcp { fill: #5b3cc4; }
      .text { fill: #1d1c1d; font-family: Arial, sans-serif; font-size: 22px; font-weight: 700; }
      .small { fill: #454245; font-family: Arial, sans-serif; font-size: 16px; }
      .white { fill: #ffffff; font-family: Arial, sans-serif; font-size: 20px; font-weight: 700; }
      .whiteSmall { fill: #ffffff; font-family: Arial, sans-serif; font-size: 15px; }
      .arrow { stroke: #454245; stroke-width: 3; fill: none; marker-end: url(#arrowhead); }
    </style>
    <marker id="arrowhead" markerWidth="10" markerHeight="7" refX="9" refY="3.5" orient="auto">
      <polygon points="0 0, 10 3.5, 0 7" fill="#454245"/>
    </marker>
  </defs>

  <rect class="bg" x="0" y="0" width="1200" height="680"/>
  <text class="text" x="60" y="58">LabSignal: Slack Research Ops Agent</text>
  <text class="small" x="60" y="88">Slack-native workflow support with MCP-compatible tools</text>

  <rect class="panel" x="60" y="130" width="260" height="150"/>
  <rect class="slack" x="80" y="152" width="220" height="62" rx="8"/>
  <text class="white" x="110" y="190">Slack Surface</text>
  <text class="small" x="88" y="242">/labsignal command</text>
  <text class="small" x="88" y="266">@LabSignal mentions</text>

  <rect class="panel" x="460" y="130" width="280" height="150"/>
  <rect class="agent" x="480" y="152" width="240" height="62" rx="8"/>
  <text class="white" x="520" y="190">Socket Mode App</text>
  <text class="small" x="488" y="242">Slack Bolt for Python</text>
  <text class="small" x="488" y="266">No public webhook required</text>

  <rect class="panel" x="860" y="130" width="280" height="150"/>
  <rect class="agent" x="880" y="152" width="240" height="62" rx="8"/>
  <text class="white" x="925" y="190">LabSignalAgent</text>
  <text class="small" x="888" y="242">Intent routing</text>
  <text class="small" x="888" y="266">Slack-formatted responses</text>

  <path class="arrow" d="M 320 205 L 455 205"/>
  <path class="arrow" d="M 740 205 L 855 205"/>

  <rect class="panel" x="140" y="390" width="250" height="160"/>
  <rect class="tool" x="160" y="412" width="210" height="54" rx="8"/>
  <text class="white" x="202" y="446">Action Tool</text>
  <text class="small" x="166" y="492">Extract owner, task,</text>
  <text class="small" x="166" y="516">and deadline</text>

  <rect class="panel" x="475" y="390" width="250" height="160"/>
  <rect class="tool" x="495" y="412" width="210" height="54" rx="8"/>
  <text class="white" x="532" y="446">Protocol Tool</text>
  <text class="small" x="501" y="492">Search neuroscience</text>
  <text class="small" x="501" y="516">protocol knowledge</text>

  <rect class="panel" x="810" y="390" width="250" height="160"/>
  <rect class="tool" x="830" y="412" width="210" height="54" rx="8"/>
  <text class="white" x="860" y="446">Summary Tool</text>
  <text class="small" x="836" y="492">Condense noisy lab</text>
  <text class="small" x="836" y="516">status updates</text>

  <path class="arrow" d="M 1000 280 C 1000 335, 265 330, 265 385"/>
  <path class="arrow" d="M 1000 280 C 1000 340, 600 330, 600 385"/>
  <path class="arrow" d="M 1000 280 C 1000 335, 935 330, 935 385"/>

  <rect class="panel" x="360" y="585" width="480" height="70"/>
  <rect class="mcp" x="380" y="602" width="160" height="36" rx="8"/>
  <text class="whiteSmall" x="410" y="625">MCP Server</text>
  <text class="small" x="560" y="624">Same tools exposed for MCP-compatible clients</text>

  <path class="arrow" d="M 265 550 C 265 615, 350 620, 375 620"/>
  <path class="arrow" d="M 600 550 L 600 585"/>
  <path class="arrow" d="M 935 550 C 935 615, 850 620, 845 620"/>
</svg>
